<mxfile host="app.diagrams.net" modified="2023-01-04T10:31:28.033Z" agent="5.0 (Macintosh; Intel Mac OS X 10_15_7) AppleWebKit/537.36 (KHTML, like Gecko) Chrome/107.0.0.0 Safari/537.36" etag="FXWXQSftrDvf9V_AnsHd" version="20.6.2" type="github">
  <diagram id="C5RBs43oDa-KdzZeNtuy" name="Page-1">
    <mxGraphModel dx="502" dy="579" grid="1" gridSize="10" guides="1" tooltips="1" connect="1" arrows="1" fold="1" page="1" pageScale="1" pageWidth="827" pageHeight="1169" math="0" shadow="0">
      <root>
        <mxCell id="WIyWlLk6GJQsqaUBKTNV-0" />
        <mxCell id="WIyWlLk6GJQsqaUBKTNV-1" parent="WIyWlLk6GJQsqaUBKTNV-0" />
        <mxCell id="9tMOyOh0k2Cmh3PsOHM6-40" style="edgeStyle=orthogonalEdgeStyle;rounded=0;orthogonalLoop=1;jettySize=auto;html=1;fontFamily=Helvetica;fontSize=12;fontColor=default;dashed=1;" parent="WIyWlLk6GJQsqaUBKTNV-1" source="9tMOyOh0k2Cmh3PsOHM6-9" edge="1">
          <mxGeometry relative="1" as="geometry">
            <mxPoint x="560" y="720" as="targetPoint" />
            <Array as="points">
              <mxPoint x="400" y="650" />
              <mxPoint x="560" y="650" />
            </Array>
          </mxGeometry>
        </mxCell>
        <mxCell id="9tMOyOh0k2Cmh3PsOHM6-9" value="" style="fontStyle=0;dashed=1;" parent="WIyWlLk6GJQsqaUBKTNV-1" vertex="1">
          <mxGeometry x="280" y="210" width="240" height="410" as="geometry" />
        </mxCell>
        <mxCell id="9tMOyOh0k2Cmh3PsOHM6-34" style="edgeStyle=orthogonalEdgeStyle;rounded=0;orthogonalLoop=1;jettySize=auto;html=1;fontSize=12;entryX=0.5;entryY=0;entryDx=0;entryDy=0;" parent="WIyWlLk6GJQsqaUBKTNV-1" source="9tMOyOh0k2Cmh3PsOHM6-0" target="9tMOyOh0k2Cmh3PsOHM6-68" edge="1">
          <mxGeometry relative="1" as="geometry">
            <mxPoint x="378" y="240" as="targetPoint" />
            <Array as="points">
              <mxPoint x="560" y="180" />
              <mxPoint x="400" y="180" />
            </Array>
          </mxGeometry>
        </mxCell>
        <mxCell id="9tMOyOh0k2Cmh3PsOHM6-0" value="RPA用户" style="shape=note2;boundedLbl=1;whiteSpace=wrap;html=1;size=25;verticalAlign=top;align=center;" parent="WIyWlLk6GJQsqaUBKTNV-1" vertex="1">
          <mxGeometry x="500" y="100" width="120" height="60" as="geometry" />
        </mxCell>
        <mxCell id="9tMOyOh0k2Cmh3PsOHM6-42" style="edgeStyle=orthogonalEdgeStyle;rounded=0;orthogonalLoop=1;jettySize=auto;html=1;entryX=0.5;entryY=0;entryDx=0;entryDy=0;fontFamily=Helvetica;fontSize=12;fontColor=default;" parent="WIyWlLk6GJQsqaUBKTNV-1" source="9tMOyOh0k2Cmh3PsOHM6-6" target="9tMOyOh0k2Cmh3PsOHM6-7" edge="1">
          <mxGeometry relative="1" as="geometry" />
        </mxCell>
        <mxCell id="9tMOyOh0k2Cmh3PsOHM6-6" value="点击跳转登录Chatbot&#xa;管理后台页面按钮" style="fontStyle=0;fontSize=12;" parent="WIyWlLk6GJQsqaUBKTNV-1" vertex="1">
          <mxGeometry x="340" y="310" width="120" height="40" as="geometry" />
        </mxCell>
        <mxCell id="9tMOyOh0k2Cmh3PsOHM6-44" style="edgeStyle=orthogonalEdgeStyle;rounded=0;orthogonalLoop=1;jettySize=auto;html=1;entryX=0.5;entryY=0;entryDx=0;entryDy=0;fontFamily=Helvetica;fontSize=12;fontColor=default;" parent="WIyWlLk6GJQsqaUBKTNV-1" source="9tMOyOh0k2Cmh3PsOHM6-7" target="9tMOyOh0k2Cmh3PsOHM6-8" edge="1">
          <mxGeometry relative="1" as="geometry" />
        </mxCell>
        <mxCell id="9tMOyOh0k2Cmh3PsOHM6-7" value="登录Chatbot&#xa;后台管理页面" style="fontStyle=0;fontSize=12;" parent="WIyWlLk6GJQsqaUBKTNV-1" vertex="1">
          <mxGeometry x="340" y="390" width="120" height="40" as="geometry" />
        </mxCell>
        <mxCell id="4m-Uh1oJpB8DR6uJ8CRc-1" value="" style="edgeStyle=orthogonalEdgeStyle;rounded=0;orthogonalLoop=1;jettySize=auto;html=1;" edge="1" parent="WIyWlLk6GJQsqaUBKTNV-1" source="9tMOyOh0k2Cmh3PsOHM6-8" target="9tMOyOh0k2Cmh3PsOHM6-27">
          <mxGeometry relative="1" as="geometry" />
        </mxCell>
        <mxCell id="9tMOyOh0k2Cmh3PsOHM6-8" value="创建聊天机器人&#xa;获取聊天机器人ID" style="fontStyle=0;fontSize=12;" parent="WIyWlLk6GJQsqaUBKTNV-1" vertex="1">
          <mxGeometry x="340" y="480" width="120" height="40" as="geometry" />
        </mxCell>
        <mxCell id="9tMOyOh0k2Cmh3PsOHM6-10" value="配置聊天机器人" style="text;html=1;strokeColor=none;fillColor=none;align=left;verticalAlign=middle;whiteSpace=wrap;rounded=0;fontSize=16;" parent="WIyWlLk6GJQsqaUBKTNV-1" vertex="1">
          <mxGeometry x="280" y="180" width="210" height="30" as="geometry" />
        </mxCell>
        <mxCell id="9tMOyOh0k2Cmh3PsOHM6-39" style="edgeStyle=orthogonalEdgeStyle;rounded=0;orthogonalLoop=1;jettySize=auto;html=1;exitX=0.5;exitY=1;exitDx=0;exitDy=0;fontFamily=Helvetica;fontSize=12;fontColor=default;dashed=1;entryX=0.5;entryY=0;entryDx=0;entryDy=0;" parent="WIyWlLk6GJQsqaUBKTNV-1" source="9tMOyOh0k2Cmh3PsOHM6-12" target="9tMOyOh0k2Cmh3PsOHM6-38" edge="1">
          <mxGeometry relative="1" as="geometry">
            <mxPoint x="560" y="700" as="targetPoint" />
            <Array as="points">
              <mxPoint x="720" y="650" />
              <mxPoint x="560" y="650" />
            </Array>
          </mxGeometry>
        </mxCell>
        <mxCell id="9tMOyOh0k2Cmh3PsOHM6-12" value="" style="fontStyle=0;dashed=1;" parent="WIyWlLk6GJQsqaUBKTNV-1" vertex="1">
          <mxGeometry x="600" y="210" width="240" height="410" as="geometry" />
        </mxCell>
        <mxCell id="9tMOyOh0k2Cmh3PsOHM6-24" value="" style="edgeStyle=orthogonalEdgeStyle;rounded=0;orthogonalLoop=1;jettySize=auto;html=1;fontSize=12;" parent="WIyWlLk6GJQsqaUBKTNV-1" source="9tMOyOh0k2Cmh3PsOHM6-5" target="9tMOyOh0k2Cmh3PsOHM6-22" edge="1">
          <mxGeometry relative="1" as="geometry" />
        </mxCell>
        <mxCell id="9tMOyOh0k2Cmh3PsOHM6-5" value="使用Chatbot组件&#xa;创建流程" style="fontStyle=0;fontSize=12;" parent="WIyWlLk6GJQsqaUBKTNV-1" vertex="1">
          <mxGeometry x="660" y="300" width="120" height="40" as="geometry" />
        </mxCell>
        <mxCell id="9tMOyOh0k2Cmh3PsOHM6-14" value="" style="fontStyle=0;dashed=1;" parent="WIyWlLk6GJQsqaUBKTNV-1" vertex="1">
          <mxGeometry x="310" y="720" width="500" height="530" as="geometry" />
        </mxCell>
        <mxCell id="9tMOyOh0k2Cmh3PsOHM6-58" value="" style="edgeStyle=orthogonalEdgeStyle;rounded=0;orthogonalLoop=1;jettySize=auto;html=1;fontFamily=Helvetica;fontSize=12;fontColor=default;" parent="WIyWlLk6GJQsqaUBKTNV-1" source="9tMOyOh0k2Cmh3PsOHM6-16" target="9tMOyOh0k2Cmh3PsOHM6-57" edge="1">
          <mxGeometry relative="1" as="geometry" />
        </mxCell>
        <mxCell id="9tMOyOh0k2Cmh3PsOHM6-16" value="Chatbot组件调用聊天机&#xa;器人应用-开放回调接口" style="fontStyle=0;fontSize=12;" parent="WIyWlLk6GJQsqaUBKTNV-1" vertex="1">
          <mxGeometry x="495" y="790" width="130" height="40" as="geometry" />
        </mxCell>
        <mxCell id="9tMOyOh0k2Cmh3PsOHM6-53" style="edgeStyle=orthogonalEdgeStyle;rounded=0;orthogonalLoop=1;jettySize=auto;html=1;fontFamily=Helvetica;fontSize=12;fontColor=default;exitX=1;exitY=0.5;exitDx=0;exitDy=0;" parent="WIyWlLk6GJQsqaUBKTNV-1" source="9tMOyOh0k2Cmh3PsOHM6-57" target="9tMOyOh0k2Cmh3PsOHM6-52" edge="1">
          <mxGeometry relative="1" as="geometry">
            <mxPoint x="560" y="930" as="sourcePoint" />
            <Array as="points">
              <mxPoint x="740" y="890" />
            </Array>
          </mxGeometry>
        </mxCell>
        <mxCell id="9tMOyOh0k2Cmh3PsOHM6-54" value="鉴权失败" style="edgeLabel;html=1;align=center;verticalAlign=middle;resizable=0;points=[];fontSize=12;fontFamily=Helvetica;fontColor=default;" parent="9tMOyOh0k2Cmh3PsOHM6-53" vertex="1" connectable="0">
          <mxGeometry x="0.0756" y="1" relative="1" as="geometry">
            <mxPoint as="offset" />
          </mxGeometry>
        </mxCell>
        <mxCell id="9tMOyOh0k2Cmh3PsOHM6-56" style="edgeStyle=orthogonalEdgeStyle;rounded=0;orthogonalLoop=1;jettySize=auto;html=1;fontFamily=Helvetica;fontSize=12;fontColor=default;" parent="WIyWlLk6GJQsqaUBKTNV-1" source="9tMOyOh0k2Cmh3PsOHM6-18" target="9tMOyOh0k2Cmh3PsOHM6-55" edge="1">
          <mxGeometry relative="1" as="geometry" />
        </mxCell>
        <mxCell id="9tMOyOh0k2Cmh3PsOHM6-59" value="发送成功" style="edgeLabel;html=1;align=center;verticalAlign=middle;resizable=0;points=[];fontSize=12;fontFamily=Helvetica;fontColor=default;" parent="9tMOyOh0k2Cmh3PsOHM6-56" vertex="1" connectable="0">
          <mxGeometry x="-0.381" y="-1" relative="1" as="geometry">
            <mxPoint as="offset" />
          </mxGeometry>
        </mxCell>
        <mxCell id="9tMOyOh0k2Cmh3PsOHM6-60" value="发送失败" style="edgeStyle=orthogonalEdgeStyle;rounded=0;orthogonalLoop=1;jettySize=auto;html=1;fontFamily=Helvetica;fontSize=12;fontColor=default;" parent="WIyWlLk6GJQsqaUBKTNV-1" source="9tMOyOh0k2Cmh3PsOHM6-18" target="9tMOyOh0k2Cmh3PsOHM6-52" edge="1">
          <mxGeometry relative="1" as="geometry" />
        </mxCell>
        <mxCell id="9tMOyOh0k2Cmh3PsOHM6-18" value="指定聊天机器人&#xa;进行消息推送" style="fontStyle=0;fontSize=12;" parent="WIyWlLk6GJQsqaUBKTNV-1" vertex="1">
          <mxGeometry x="500" y="1040" width="120" height="40" as="geometry" />
        </mxCell>
        <mxCell id="9tMOyOh0k2Cmh3PsOHM6-20" value="推送消息流程" style="text;html=1;strokeColor=none;fillColor=none;align=left;verticalAlign=middle;whiteSpace=wrap;rounded=0;fontSize=16;" parent="WIyWlLk6GJQsqaUBKTNV-1" vertex="1">
          <mxGeometry x="310" y="680" width="105" height="30" as="geometry" />
        </mxCell>
        <mxCell id="9tMOyOh0k2Cmh3PsOHM6-21" value="配置RPA流程" style="text;html=1;strokeColor=none;fillColor=none;align=left;verticalAlign=middle;whiteSpace=wrap;rounded=0;fontSize=16;" parent="WIyWlLk6GJQsqaUBKTNV-1" vertex="1">
          <mxGeometry x="600" y="180" width="210" height="30" as="geometry" />
        </mxCell>
        <mxCell id="9tMOyOh0k2Cmh3PsOHM6-73" value="" style="edgeStyle=orthogonalEdgeStyle;rounded=0;orthogonalLoop=1;jettySize=auto;html=1;fontFamily=Helvetica;fontSize=12;fontColor=default;" parent="WIyWlLk6GJQsqaUBKTNV-1" source="9tMOyOh0k2Cmh3PsOHM6-22" target="9tMOyOh0k2Cmh3PsOHM6-26" edge="1">
          <mxGeometry relative="1" as="geometry" />
        </mxCell>
        <mxCell id="9tMOyOh0k2Cmh3PsOHM6-22" value="填写聊天机器人ID" style="fontStyle=0;fontSize=12;" parent="WIyWlLk6GJQsqaUBKTNV-1" vertex="1">
          <mxGeometry x="660" y="390" width="120" height="40" as="geometry" />
        </mxCell>
        <mxCell id="9tMOyOh0k2Cmh3PsOHM6-33" style="edgeStyle=orthogonalEdgeStyle;rounded=0;orthogonalLoop=1;jettySize=auto;html=1;fontSize=12;" parent="WIyWlLk6GJQsqaUBKTNV-1" source="9tMOyOh0k2Cmh3PsOHM6-26" target="9tMOyOh0k2Cmh3PsOHM6-28" edge="1">
          <mxGeometry relative="1" as="geometry" />
        </mxCell>
        <mxCell id="9tMOyOh0k2Cmh3PsOHM6-26" value="填写需要推送的&#xa;消息内容" style="fontStyle=0;fontSize=12;" parent="WIyWlLk6GJQsqaUBKTNV-1" vertex="1">
          <mxGeometry x="660" y="480" width="120" height="40" as="geometry" />
        </mxCell>
        <mxCell id="9tMOyOh0k2Cmh3PsOHM6-27" value="保存退出" style="fontStyle=0;fontSize=12;" parent="WIyWlLk6GJQsqaUBKTNV-1" vertex="1">
          <mxGeometry x="340" y="560" width="120" height="40" as="geometry" />
        </mxCell>
        <mxCell id="9tMOyOh0k2Cmh3PsOHM6-28" value="保存流程" style="fontStyle=0;fontSize=12;" parent="WIyWlLk6GJQsqaUBKTNV-1" vertex="1">
          <mxGeometry x="660" y="560" width="120" height="40" as="geometry" />
        </mxCell>
        <mxCell id="9tMOyOh0k2Cmh3PsOHM6-37" style="edgeStyle=orthogonalEdgeStyle;rounded=0;orthogonalLoop=1;jettySize=auto;html=1;entryX=0.5;entryY=0;entryDx=0;entryDy=0;fontFamily=Helvetica;fontSize=12;fontColor=default;" parent="WIyWlLk6GJQsqaUBKTNV-1" source="9tMOyOh0k2Cmh3PsOHM6-0" edge="1">
          <mxGeometry relative="1" as="geometry">
            <Array as="points">
              <mxPoint x="560" y="180" />
              <mxPoint x="720" y="180" />
            </Array>
            <mxPoint x="720" y="220" as="targetPoint" />
          </mxGeometry>
        </mxCell>
        <mxCell id="9tMOyOh0k2Cmh3PsOHM6-50" style="edgeStyle=orthogonalEdgeStyle;rounded=0;orthogonalLoop=1;jettySize=auto;html=1;fontFamily=Helvetica;fontSize=12;fontColor=default;" parent="WIyWlLk6GJQsqaUBKTNV-1" source="9tMOyOh0k2Cmh3PsOHM6-38" target="9tMOyOh0k2Cmh3PsOHM6-16" edge="1">
          <mxGeometry relative="1" as="geometry" />
        </mxCell>
        <mxCell id="9tMOyOh0k2Cmh3PsOHM6-38" value="启动RPA流程" style="fontStyle=0;fontSize=12;" parent="WIyWlLk6GJQsqaUBKTNV-1" vertex="1">
          <mxGeometry x="495" y="720" width="130" height="40" as="geometry" />
        </mxCell>
        <mxCell id="9tMOyOh0k2Cmh3PsOHM6-41" style="edgeStyle=orthogonalEdgeStyle;rounded=0;orthogonalLoop=1;jettySize=auto;html=1;entryX=0.5;entryY=0;entryDx=0;entryDy=0;fontFamily=Helvetica;fontSize=12;fontColor=default;" parent="WIyWlLk6GJQsqaUBKTNV-1" source="9tMOyOh0k2Cmh3PsOHM6-0" target="9tMOyOh0k2Cmh3PsOHM6-38" edge="1">
          <mxGeometry relative="1" as="geometry" />
        </mxCell>
        <mxCell id="9tMOyOh0k2Cmh3PsOHM6-65" style="edgeStyle=orthogonalEdgeStyle;rounded=0;orthogonalLoop=1;jettySize=auto;html=1;entryX=1;entryY=0.5;entryDx=0;entryDy=0;fontFamily=Helvetica;fontSize=12;fontColor=default;" parent="WIyWlLk6GJQsqaUBKTNV-1" source="9tMOyOh0k2Cmh3PsOHM6-52" target="9tMOyOh0k2Cmh3PsOHM6-63" edge="1">
          <mxGeometry relative="1" as="geometry">
            <Array as="points">
              <mxPoint x="740" y="1209" />
            </Array>
          </mxGeometry>
        </mxCell>
        <mxCell id="9tMOyOh0k2Cmh3PsOHM6-52" value="RPA应用提示失败信息" style="fontStyle=0;fontSize=12;" parent="WIyWlLk6GJQsqaUBKTNV-1" vertex="1">
          <mxGeometry x="680" y="1040" width="120" height="40" as="geometry" />
        </mxCell>
        <mxCell id="9tMOyOh0k2Cmh3PsOHM6-64" value="" style="edgeStyle=orthogonalEdgeStyle;rounded=0;orthogonalLoop=1;jettySize=auto;html=1;fontFamily=Helvetica;fontSize=12;fontColor=default;" parent="WIyWlLk6GJQsqaUBKTNV-1" source="9tMOyOh0k2Cmh3PsOHM6-55" target="9tMOyOh0k2Cmh3PsOHM6-63" edge="1">
          <mxGeometry relative="1" as="geometry" />
        </mxCell>
        <mxCell id="9tMOyOh0k2Cmh3PsOHM6-55" value="RPA应用提示发送成功" style="fontStyle=0;fontSize=12;" parent="WIyWlLk6GJQsqaUBKTNV-1" vertex="1">
          <mxGeometry x="500" y="1110" width="120" height="40" as="geometry" />
        </mxCell>
        <mxCell id="9tMOyOh0k2Cmh3PsOHM6-61" style="edgeStyle=orthogonalEdgeStyle;rounded=0;orthogonalLoop=1;jettySize=auto;html=1;fontFamily=Helvetica;fontSize=12;fontColor=default;entryX=0.5;entryY=0;entryDx=0;entryDy=0;" parent="WIyWlLk6GJQsqaUBKTNV-1" source="9tMOyOh0k2Cmh3PsOHM6-57" target="4m-Uh1oJpB8DR6uJ8CRc-3" edge="1">
          <mxGeometry relative="1" as="geometry">
            <mxPoint x="560" y="960" as="targetPoint" />
          </mxGeometry>
        </mxCell>
        <mxCell id="9tMOyOh0k2Cmh3PsOHM6-62" value="鉴权成功" style="edgeLabel;html=1;align=center;verticalAlign=middle;resizable=0;points=[];fontSize=12;fontFamily=Helvetica;fontColor=default;" parent="9tMOyOh0k2Cmh3PsOHM6-61" vertex="1" connectable="0">
          <mxGeometry x="-0.2476" y="-2" relative="1" as="geometry">
            <mxPoint x="2" y="-9" as="offset" />
          </mxGeometry>
        </mxCell>
        <mxCell id="9tMOyOh0k2Cmh3PsOHM6-57" value="&lt;p style=&quot;margin: 0pt 0pt 0.0001pt; text-align: justify; font-family: &amp;quot;Times New Roman&amp;quot;;&quot; class=&quot;MsoNormal&quot;&gt;&lt;span style=&quot;font-family: SimSun;&quot;&gt;&lt;font style=&quot;font-size: 12px;&quot;&gt;token鉴权&lt;/font&gt;&lt;/span&gt;&lt;/p&gt;" style="rhombus;whiteSpace=wrap;html=1;fontFamily=Helvetica;fontSize=12;fontColor=default;" parent="WIyWlLk6GJQsqaUBKTNV-1" vertex="1">
          <mxGeometry x="520" y="850" width="80" height="80" as="geometry" />
        </mxCell>
        <mxCell id="9tMOyOh0k2Cmh3PsOHM6-63" value="结束" style="ellipse;whiteSpace=wrap;html=1;fontFamily=Helvetica;fontSize=12;fontColor=default;" parent="WIyWlLk6GJQsqaUBKTNV-1" vertex="1">
          <mxGeometry x="500" y="1169" width="120" height="80" as="geometry" />
        </mxCell>
        <mxCell id="9tMOyOh0k2Cmh3PsOHM6-72" style="edgeStyle=orthogonalEdgeStyle;rounded=0;orthogonalLoop=1;jettySize=auto;html=1;entryX=0.5;entryY=0;entryDx=0;entryDy=0;fontFamily=Helvetica;fontSize=12;fontColor=default;" parent="WIyWlLk6GJQsqaUBKTNV-1" source="9tMOyOh0k2Cmh3PsOHM6-68" target="9tMOyOh0k2Cmh3PsOHM6-6" edge="1">
          <mxGeometry relative="1" as="geometry" />
        </mxCell>
        <mxCell id="9tMOyOh0k2Cmh3PsOHM6-68" value="登录RPA应用&#xa;（流程编辑器）" style="fontStyle=0;fontSize=12;" parent="WIyWlLk6GJQsqaUBKTNV-1" vertex="1">
          <mxGeometry x="340" y="220" width="120" height="40" as="geometry" />
        </mxCell>
        <mxCell id="9tMOyOh0k2Cmh3PsOHM6-71" style="edgeStyle=orthogonalEdgeStyle;rounded=0;orthogonalLoop=1;jettySize=auto;html=1;entryX=0.5;entryY=0;entryDx=0;entryDy=0;fontFamily=Helvetica;fontSize=12;fontColor=default;" parent="WIyWlLk6GJQsqaUBKTNV-1" target="9tMOyOh0k2Cmh3PsOHM6-5" edge="1">
          <mxGeometry relative="1" as="geometry">
            <mxPoint x="720" y="260" as="sourcePoint" />
          </mxGeometry>
        </mxCell>
        <mxCell id="4m-Uh1oJpB8DR6uJ8CRc-2" value="登录RPA应用&#xa;（流程编辑器）" style="fontStyle=0;fontSize=12;" vertex="1" parent="WIyWlLk6GJQsqaUBKTNV-1">
          <mxGeometry x="660" y="220" width="120" height="40" as="geometry" />
        </mxCell>
        <mxCell id="4m-Uh1oJpB8DR6uJ8CRc-7" style="edgeStyle=orthogonalEdgeStyle;rounded=0;orthogonalLoop=1;jettySize=auto;html=1;entryX=0.5;entryY=0;entryDx=0;entryDy=0;fontSize=12;" edge="1" parent="WIyWlLk6GJQsqaUBKTNV-1" source="4m-Uh1oJpB8DR6uJ8CRc-3" target="9tMOyOh0k2Cmh3PsOHM6-18">
          <mxGeometry relative="1" as="geometry" />
        </mxCell>
        <mxCell id="4m-Uh1oJpB8DR6uJ8CRc-8" value="用户信息存在" style="edgeLabel;html=1;align=center;verticalAlign=middle;resizable=0;points=[];fontSize=12;" vertex="1" connectable="0" parent="4m-Uh1oJpB8DR6uJ8CRc-7">
          <mxGeometry x="-0.0013" y="2" relative="1" as="geometry">
            <mxPoint as="offset" />
          </mxGeometry>
        </mxCell>
        <mxCell id="4m-Uh1oJpB8DR6uJ8CRc-10" value="" style="edgeStyle=orthogonalEdgeStyle;rounded=0;orthogonalLoop=1;jettySize=auto;html=1;fontSize=12;" edge="1" parent="WIyWlLk6GJQsqaUBKTNV-1" source="4m-Uh1oJpB8DR6uJ8CRc-3" target="4m-Uh1oJpB8DR6uJ8CRc-9">
          <mxGeometry relative="1" as="geometry" />
        </mxCell>
        <mxCell id="4m-Uh1oJpB8DR6uJ8CRc-12" value="用户信息不存在" style="edgeLabel;html=1;align=center;verticalAlign=middle;resizable=0;points=[];fontSize=12;" vertex="1" connectable="0" parent="4m-Uh1oJpB8DR6uJ8CRc-10">
          <mxGeometry x="-0.2345" relative="1" as="geometry">
            <mxPoint as="offset" />
          </mxGeometry>
        </mxCell>
        <mxCell id="4m-Uh1oJpB8DR6uJ8CRc-3" value="查询Chatbot&#xa;用户信息表" style="fontStyle=0;fontSize=12;" vertex="1" parent="WIyWlLk6GJQsqaUBKTNV-1">
          <mxGeometry x="500" y="960" width="120" height="40" as="geometry" />
        </mxCell>
        <mxCell id="4m-Uh1oJpB8DR6uJ8CRc-11" style="edgeStyle=orthogonalEdgeStyle;rounded=0;orthogonalLoop=1;jettySize=auto;html=1;entryX=0;entryY=0.5;entryDx=0;entryDy=0;fontSize=12;" edge="1" parent="WIyWlLk6GJQsqaUBKTNV-1" source="4m-Uh1oJpB8DR6uJ8CRc-9" target="9tMOyOh0k2Cmh3PsOHM6-63">
          <mxGeometry relative="1" as="geometry">
            <Array as="points">
              <mxPoint x="390" y="1209" />
            </Array>
          </mxGeometry>
        </mxCell>
        <mxCell id="4m-Uh1oJpB8DR6uJ8CRc-9" value="RPA应用提示失败信息" style="fontStyle=0;fontSize=12;" vertex="1" parent="WIyWlLk6GJQsqaUBKTNV-1">
          <mxGeometry x="330" y="1040" width="120" height="40" as="geometry" />
        </mxCell>
      </root>
    </mxGraphModel>
  </diagram>
</mxfile>
